<svg xmlns="http://www.w3.org/2000/svg" viewBox="0 0 512 512"><defs><linearGradient id="bg" x2="1" y2="1"><stop stop-color="#102638"/><stop offset="1" stop-color="#03070c"/></linearGradient><linearGradient id="b" x2="0" y2="1"><stop stop-color="#38d8ff"/><stop offset=".55" stop-color="#1688ff"/><stop offset="1" stop-color="#0643c8"/></linearGradient></defs><rect width="512" height="512" rx="108" fill="url(#bg)"/><g transform="translate(34 30) scale(.52)"><circle cx="96" cy="96" r="62" fill="none" stroke="#eef2f6" stroke-width="18" stroke-dasharray="300 90" transform="rotate(-38 96 96)"/><path d="M47 132Q95 76 145 48Q112 95 95 145" fill="none" stroke="url(#b)" stroke-width="16" stroke-linecap="round"/><path d="M140 48l23-3-5 23" fill="url(#b)"/></g><g fill="#dfe7ef"><circle cx="256" cy="183" r="55"/><path d="M181 356v-86q0-46 75-46t75 46v86z"/><circle cx="151" cy="219" r="39" opacity=".75"/><path d="M103 348v-68q0-34 48-34t48 34v68z" opacity=".75"/><circle cx="361" cy="219" r="39" opacity=".75"/><path d="M313 348v-68q0-34 48-34t48 34v68z" opacity=".75"/></g><path d="M233 267h46v90h-46z" fill="#0b1420"/><text x="256" y="334" text-anchor="middle" font-family="Arial,sans-serif" font-size="66" font-weight="900" fill="#0b1420">10</text><g transform="translate(347 259)"><rect width="104" height="115" rx="14" fill="#07101a" stroke="url(#b)" stroke-width="10"/><path d="M31 35h45M31 58h45M31 81h30" stroke="#46cfff" stroke-width="9" stroke-linecap="round"/></g><text x="256" y="438" text-anchor="middle" font-family="Arial,sans-serif" font-size="47" font-weight="700" letter-spacing="9" fill="#eef2f6">ROSTER</text><path d="M205 463h102" stroke="#16bfff" stroke-width="8" stroke-linecap="round"/></svg>